# xmcd CD database file
#
# Track frame offsets:
#	187
#	16857
#	36607
#	53597
#	72372
#	90160
#	109725
#	128177
#	145022
#	161035
#
# Disc length: 2374 seconds
#
# Revision: 1
# Processed by: cddbd v1.5.2PL0 Copyright (c) Steve Scherf et al.
# Submitted via: CD2WAV32(JP) R3.22
#
DISCID=7f09440a
DTITLE=荻野目洋子 - CD FILE VOL.3
DYEAR=1989
DGENRE=JPop
TTITLE0=湾岸太陽族
TTITLE1=粉雪のリゾート
TTITLE2=さよならの果実たち
TTITLE3=ロフト・サイド・グラフィティ
TTITLE4=北風のキャロル
TTITLE5=月曜日のマリーナ
TTITLE6=ストレンジャー tonight
TTITLE7=BUS STOP
TTITLE8=スターダスト・ドリーム
TTITLE9=ジャングル・ダンス
EXTD=
EXTT0=
EXTT1=
EXTT2=
EXTT3=
EXTT4=
EXTT5=
EXTT6=
EXTT7=
EXTT8=
EXTT9=
PLAYORDER=
